<svg width="40" height="31" viewBox="0 0 40 31" fill="none" xmlns="http://www.w3.org/2000/svg">
<g id="Icon">
<g id="Group">
<path id="Vector" fill-rule="evenodd" clip-rule="evenodd" d="M14.31 13.3104L14.082 13.7243L13.8498 14.1433L13.6274 14.5413L13.4498 14.8572L13.279 15.1585L13.0832 15.5009L12.9582 15.7177L12.779 16.0254L12.6931 16.1714L12.5825 16.358L12.5024 16.4918L12.3995 16.6621L12.3253 16.7838L12.207 16.975L12.1394 17.0828L12.0743 17.1853L12.0116 17.2827L11.9515 17.3749L11.8938 17.4616L11.8207 17.5695L11.7688 17.6441L11.7356 17.691L11.7036 17.7357L11.6575 17.7982L11.6281 17.837L11.5862 17.8909L11.5728 17.9077C10.7322 18.9522 9.81531 19.7431 8.68766 20.1994C6.31688 21.3136 3.36969 21.3657 1.09375 19.9881L6.74586 10.2474L6.96461 10.113C10.8128 7.82188 12.6741 10.2002 14.31 13.3104Z" fill="url(#paint0_linear_1_697)"/>
<path id="Vector_2" fill-rule="evenodd" clip-rule="evenodd" d="M34.7117 8.94734C31.0969 2.62265 27.3602 -3.3361 23.0677 5.40484C22.4805 6.52859 22.0525 8.71242 21.0938 8.71242V8.70132C20.135 8.70132 19.707 6.5175 19.1199 5.39375C14.8273 -3.34719 11.0906 2.61156 7.47578 8.93625C7.20367 9.41328 6.94234 9.86843 6.71875 10.2641C15.003 5.01976 14.3055 20.863 21.0938 20.9889V21C27.8821 20.8741 27.1845 5.03086 35.4688 10.275C35.2453 9.87953 34.9839 9.42437 34.7117 8.94734Z" fill="url(#paint1_linear_1_697)"/>
<path id="Vector_3" fill-rule="evenodd" clip-rule="evenodd" d="M35.1562 21C37.2273 21 38.9062 19.321 38.9062 17.25C38.9062 15.179 37.2273 13.5 35.1562 13.5C33.0852 13.5 31.4062 15.179 31.4062 17.25C31.4062 19.321 33.0852 21 35.1562 21Z" fill="url(#paint2_linear_1_697)"/>
</g>
</g>
<defs>
<linearGradient id="paint0_linear_1_697" x1="1322.72" y1="126.851" x2="720.373" y2="665.97" gradientUnits="userSpaceOnUse">
<stop stop-color="#0C44AE"/>
<stop offset="1" stop-color="#1877F2"/>
</linearGradient>
<linearGradient id="paint1_linear_1_697" x1="1444.22" y1="1" x2="1444.22" y2="2001" gradientUnits="userSpaceOnUse">
<stop stop-color="#73BAFB"/>
<stop offset="1" stop-color="#1877F2"/>
</linearGradient>
<linearGradient id="paint2_linear_1_697" x1="406.406" y1="13.5" x2="406.406" y2="763.5" gradientUnits="userSpaceOnUse">
<stop stop-color="#73BAFB"/>
<stop offset="1" stop-color="#1877F2"/>
</linearGradient>
</defs>
</svg>
